<mxfile host="app.diagrams.net" modified="2024-01-07T16:54:24.309Z" agent="Mozilla/5.0 (Windows NT 10.0; Win64; x64) AppleWebKit/537.36 (KHTML, like Gecko) Chrome/120.0.0.0 Safari/537.36" etag="6wugLgdop6fSR2ue96ul" version="22.1.17" type="device">
  <diagram name="Page-1" id="dOx0k28bz2w898th3raS">
    <mxGraphModel dx="1290" dy="530" grid="1" gridSize="10" guides="1" tooltips="1" connect="1" arrows="1" fold="1" page="1" pageScale="1" pageWidth="827" pageHeight="1169" math="0" shadow="0">
      <root>
        <mxCell id="0" />
        <mxCell id="1" parent="0" />
        <mxCell id="o1oB3w7YQVJ93uNR2HxH-1" value="SOBA" style="rounded=0;whiteSpace=wrap;html=1;" parent="1" vertex="1">
          <mxGeometry x="90" y="150" width="120" height="60" as="geometry" />
        </mxCell>
        <mxCell id="o1oB3w7YQVJ93uNR2HxH-97" style="edgeStyle=orthogonalEdgeStyle;rounded=0;orthogonalLoop=1;jettySize=auto;html=1;exitX=0.5;exitY=1;exitDx=0;exitDy=0;entryX=0.5;entryY=0;entryDx=0;entryDy=0;" parent="1" source="o1oB3w7YQVJ93uNR2HxH-2" target="o1oB3w7YQVJ93uNR2HxH-95" edge="1">
          <mxGeometry relative="1" as="geometry" />
        </mxCell>
        <mxCell id="o1oB3w7YQVJ93uNR2HxH-100" value="1, M" style="edgeLabel;html=1;align=center;verticalAlign=middle;resizable=0;points=[];" parent="o1oB3w7YQVJ93uNR2HxH-97" vertex="1" connectable="0">
          <mxGeometry x="-0.708" y="-1" relative="1" as="geometry">
            <mxPoint x="1" y="11" as="offset" />
          </mxGeometry>
        </mxCell>
        <mxCell id="o1oB3w7YQVJ93uNR2HxH-2" value="REZERVACIJA" style="rounded=0;whiteSpace=wrap;html=1;" parent="1" vertex="1">
          <mxGeometry x="380" y="150" width="120" height="60" as="geometry" />
        </mxCell>
        <mxCell id="o1oB3w7YQVJ93uNR2HxH-3" value="GOST" style="rounded=0;whiteSpace=wrap;html=1;" parent="1" vertex="1">
          <mxGeometry x="670" y="150" width="120" height="60" as="geometry" />
        </mxCell>
        <mxCell id="o1oB3w7YQVJ93uNR2HxH-7" value="PROMO KOD" style="rounded=0;whiteSpace=wrap;html=1;" parent="1" vertex="1">
          <mxGeometry x="687" y="420" width="120" height="60" as="geometry" />
        </mxCell>
        <mxCell id="o1oB3w7YQVJ93uNR2HxH-14" value="Naziv&lt;br&gt;" style="ellipse;whiteSpace=wrap;html=1;" parent="1" vertex="1">
          <mxGeometry x="30" y="100" width="60" height="30" as="geometry" />
        </mxCell>
        <mxCell id="o1oB3w7YQVJ93uNR2HxH-15" value="Kapacitet" style="ellipse;whiteSpace=wrap;html=1;" parent="1" vertex="1">
          <mxGeometry x="100" y="80" width="70" height="40" as="geometry" />
        </mxCell>
        <mxCell id="o1oB3w7YQVJ93uNR2HxH-16" value="Opis" style="ellipse;whiteSpace=wrap;html=1;" parent="1" vertex="1">
          <mxGeometry x="10" y="150" width="60" height="30" as="geometry" />
        </mxCell>
        <mxCell id="o1oB3w7YQVJ93uNR2HxH-17" value="Cena po noci" style="ellipse;whiteSpace=wrap;html=1;" parent="1" vertex="1">
          <mxGeometry x="5" y="200" width="70" height="40" as="geometry" />
        </mxCell>
        <mxCell id="o1oB3w7YQVJ93uNR2HxH-18" value="" style="endArrow=none;html=1;rounded=0;entryX=1;entryY=1;entryDx=0;entryDy=0;exitX=0.75;exitY=0;exitDx=0;exitDy=0;" parent="1" source="o1oB3w7YQVJ93uNR2HxH-1" target="o1oB3w7YQVJ93uNR2HxH-15" edge="1">
          <mxGeometry width="50" height="50" relative="1" as="geometry">
            <mxPoint x="190" y="160" as="sourcePoint" />
            <mxPoint x="240" y="110" as="targetPoint" />
          </mxGeometry>
        </mxCell>
        <mxCell id="o1oB3w7YQVJ93uNR2HxH-19" value="" style="endArrow=none;html=1;rounded=0;entryX=1;entryY=1;entryDx=0;entryDy=0;" parent="1" target="o1oB3w7YQVJ93uNR2HxH-14" edge="1">
          <mxGeometry width="50" height="50" relative="1" as="geometry">
            <mxPoint x="150" y="150" as="sourcePoint" />
            <mxPoint x="170" y="124" as="targetPoint" />
          </mxGeometry>
        </mxCell>
        <mxCell id="o1oB3w7YQVJ93uNR2HxH-20" value="" style="endArrow=none;html=1;rounded=0;entryX=1;entryY=0.5;entryDx=0;entryDy=0;exitX=0;exitY=0.25;exitDx=0;exitDy=0;" parent="1" source="o1oB3w7YQVJ93uNR2HxH-1" target="o1oB3w7YQVJ93uNR2HxH-16" edge="1">
          <mxGeometry width="50" height="50" relative="1" as="geometry">
            <mxPoint x="200" y="170" as="sourcePoint" />
            <mxPoint x="180" y="134" as="targetPoint" />
          </mxGeometry>
        </mxCell>
        <mxCell id="o1oB3w7YQVJ93uNR2HxH-21" value="" style="endArrow=none;html=1;rounded=0;entryX=1;entryY=0.5;entryDx=0;entryDy=0;" parent="1" target="o1oB3w7YQVJ93uNR2HxH-17" edge="1">
          <mxGeometry width="50" height="50" relative="1" as="geometry">
            <mxPoint x="120" y="210" as="sourcePoint" />
            <mxPoint x="80" y="210" as="targetPoint" />
          </mxGeometry>
        </mxCell>
        <mxCell id="o1oB3w7YQVJ93uNR2HxH-23" value="Datum od" style="ellipse;whiteSpace=wrap;html=1;" parent="1" vertex="1">
          <mxGeometry x="340" y="365" width="60" height="30" as="geometry" />
        </mxCell>
        <mxCell id="o1oB3w7YQVJ93uNR2HxH-24" value="Datum do&lt;br&gt;" style="ellipse;whiteSpace=wrap;html=1;" parent="1" vertex="1">
          <mxGeometry x="414" y="370" width="60" height="30" as="geometry" />
        </mxCell>
        <mxCell id="o1oB3w7YQVJ93uNR2HxH-25" value="" style="endArrow=none;html=1;rounded=0;entryX=0.707;entryY=0.133;entryDx=0;entryDy=0;exitX=0.25;exitY=1;exitDx=0;exitDy=0;entryPerimeter=0;" parent="1" source="o1oB3w7YQVJ93uNR2HxH-96" target="o1oB3w7YQVJ93uNR2HxH-23" edge="1">
          <mxGeometry width="50" height="50" relative="1" as="geometry">
            <mxPoint x="255" y="125" as="sourcePoint" />
            <mxPoint x="235" y="89" as="targetPoint" />
          </mxGeometry>
        </mxCell>
        <mxCell id="o1oB3w7YQVJ93uNR2HxH-26" value="" style="endArrow=none;html=1;rounded=0;exitX=0.563;exitY=1.023;exitDx=0;exitDy=0;exitPerimeter=0;" parent="1" source="o1oB3w7YQVJ93uNR2HxH-95" target="o1oB3w7YQVJ93uNR2HxH-24" edge="1">
          <mxGeometry width="50" height="50" relative="1" as="geometry">
            <mxPoint x="265" y="135" as="sourcePoint" />
            <mxPoint x="245" y="99" as="targetPoint" />
          </mxGeometry>
        </mxCell>
        <mxCell id="o1oB3w7YQVJ93uNR2HxH-28" value="Email&lt;br&gt;" style="ellipse;whiteSpace=wrap;html=1;" parent="1" vertex="1">
          <mxGeometry x="640" y="95" width="60" height="30" as="geometry" />
        </mxCell>
        <mxCell id="o1oB3w7YQVJ93uNR2HxH-29" value="Prezime" style="ellipse;whiteSpace=wrap;html=1;" parent="1" vertex="1">
          <mxGeometry x="761" y="95" width="60" height="30" as="geometry" />
        </mxCell>
        <mxCell id="o1oB3w7YQVJ93uNR2HxH-30" value="Ime&lt;br&gt;" style="ellipse;whiteSpace=wrap;html=1;" parent="1" vertex="1">
          <mxGeometry x="700" y="80" width="60" height="30" as="geometry" />
        </mxCell>
        <mxCell id="o1oB3w7YQVJ93uNR2HxH-31" value="Popust %" style="ellipse;whiteSpace=wrap;html=1;" parent="1" vertex="1">
          <mxGeometry x="760" y="505" width="60" height="30" as="geometry" />
        </mxCell>
        <mxCell id="o1oB3w7YQVJ93uNR2HxH-32" value="" style="endArrow=none;html=1;rounded=0;exitX=0.75;exitY=1;exitDx=0;exitDy=0;" parent="1" source="o1oB3w7YQVJ93uNR2HxH-7" target="o1oB3w7YQVJ93uNR2HxH-31" edge="1">
          <mxGeometry width="50" height="50" relative="1" as="geometry">
            <mxPoint x="252" y="110" as="sourcePoint" />
            <mxPoint x="232" y="74" as="targetPoint" />
          </mxGeometry>
        </mxCell>
        <mxCell id="o1oB3w7YQVJ93uNR2HxH-33" value="" style="endArrow=none;html=1;rounded=0;entryX=0.5;entryY=1;entryDx=0;entryDy=0;" parent="1" source="o1oB3w7YQVJ93uNR2HxH-3" target="o1oB3w7YQVJ93uNR2HxH-28" edge="1">
          <mxGeometry width="50" height="50" relative="1" as="geometry">
            <mxPoint x="493" y="170" as="sourcePoint" />
            <mxPoint x="521" y="139" as="targetPoint" />
          </mxGeometry>
        </mxCell>
        <mxCell id="o1oB3w7YQVJ93uNR2HxH-34" value="" style="endArrow=none;html=1;rounded=0;entryX=0.5;entryY=1;entryDx=0;entryDy=0;fontStyle=1" parent="1" source="o1oB3w7YQVJ93uNR2HxH-3" target="o1oB3w7YQVJ93uNR2HxH-30" edge="1">
          <mxGeometry width="50" height="50" relative="1" as="geometry">
            <mxPoint x="503" y="180" as="sourcePoint" />
            <mxPoint x="531" y="149" as="targetPoint" />
          </mxGeometry>
        </mxCell>
        <mxCell id="o1oB3w7YQVJ93uNR2HxH-35" value="" style="endArrow=none;html=1;rounded=0;entryX=0.5;entryY=1;entryDx=0;entryDy=0;exitX=0.893;exitY=0.013;exitDx=0;exitDy=0;exitPerimeter=0;" parent="1" source="o1oB3w7YQVJ93uNR2HxH-3" target="o1oB3w7YQVJ93uNR2HxH-29" edge="1">
          <mxGeometry width="50" height="50" relative="1" as="geometry">
            <mxPoint x="433" y="180" as="sourcePoint" />
            <mxPoint x="461" y="149" as="targetPoint" />
          </mxGeometry>
        </mxCell>
        <mxCell id="o1oB3w7YQVJ93uNR2HxH-36" value="Cena rezervacije" style="ellipse;whiteSpace=wrap;html=1;" parent="1" vertex="1">
          <mxGeometry x="485" y="350" width="85" height="40" as="geometry" />
        </mxCell>
        <mxCell id="o1oB3w7YQVJ93uNR2HxH-47" value="" style="endArrow=none;html=1;rounded=0;entryX=0.111;entryY=-0.088;entryDx=0;entryDy=0;exitX=1;exitY=0.5;exitDx=0;exitDy=0;entryPerimeter=0;" parent="1" source="o1oB3w7YQVJ93uNR2HxH-85" target="o1oB3w7YQVJ93uNR2HxH-96" edge="1">
          <mxGeometry width="50" height="50" relative="1" as="geometry">
            <mxPoint x="310" y="180" as="sourcePoint" />
            <mxPoint x="280" y="190" as="targetPoint" />
          </mxGeometry>
        </mxCell>
        <mxCell id="o1oB3w7YQVJ93uNR2HxH-91" value="1, 1" style="edgeLabel;html=1;align=center;verticalAlign=middle;resizable=0;points=[];" parent="o1oB3w7YQVJ93uNR2HxH-47" vertex="1" connectable="0">
          <mxGeometry x="0.5371" y="-2" relative="1" as="geometry">
            <mxPoint x="-3" y="-2" as="offset" />
          </mxGeometry>
        </mxCell>
        <mxCell id="o1oB3w7YQVJ93uNR2HxH-48" value="" style="endArrow=none;html=1;rounded=0;entryX=0;entryY=0.5;entryDx=0;entryDy=0;" parent="1" edge="1">
          <mxGeometry width="50" height="50" relative="1" as="geometry">
            <mxPoint x="500" y="180" as="sourcePoint" />
            <mxPoint x="560" y="180" as="targetPoint" />
          </mxGeometry>
        </mxCell>
        <mxCell id="o1oB3w7YQVJ93uNR2HxH-93" value="1, 1" style="edgeLabel;html=1;align=center;verticalAlign=middle;resizable=0;points=[];" parent="o1oB3w7YQVJ93uNR2HxH-48" vertex="1" connectable="0">
          <mxGeometry x="-0.3067" y="-4" relative="1" as="geometry">
            <mxPoint y="-4" as="offset" />
          </mxGeometry>
        </mxCell>
        <mxCell id="o1oB3w7YQVJ93uNR2HxH-49" value="" style="endArrow=none;html=1;rounded=0;entryX=0;entryY=0.5;entryDx=0;entryDy=0;" parent="1" source="o1oB3w7YQVJ93uNR2HxH-88" target="o1oB3w7YQVJ93uNR2HxH-3" edge="1">
          <mxGeometry width="50" height="50" relative="1" as="geometry">
            <mxPoint x="560" y="180" as="sourcePoint" />
            <mxPoint x="300" y="210" as="targetPoint" />
          </mxGeometry>
        </mxCell>
        <mxCell id="o1oB3w7YQVJ93uNR2HxH-54" value="0, M&lt;br&gt;" style="edgeLabel;html=1;align=center;verticalAlign=middle;resizable=0;points=[];" parent="o1oB3w7YQVJ93uNR2HxH-49" vertex="1" connectable="0">
          <mxGeometry x="0.1086" y="1" relative="1" as="geometry">
            <mxPoint x="7" y="1" as="offset" />
          </mxGeometry>
        </mxCell>
        <mxCell id="o1oB3w7YQVJ93uNR2HxH-57" value="Token" style="ellipse;whiteSpace=wrap;html=1;" parent="1" vertex="1">
          <mxGeometry x="410" y="80" width="60" height="30" as="geometry" />
        </mxCell>
        <mxCell id="o1oB3w7YQVJ93uNR2HxH-58" value="Promo kod" style="ellipse;whiteSpace=wrap;html=1;" parent="1" vertex="1">
          <mxGeometry x="610" y="490" width="70" height="35" as="geometry" />
        </mxCell>
        <mxCell id="o1oB3w7YQVJ93uNR2HxH-59" value="" style="endArrow=none;html=1;rounded=0;entryX=0.5;entryY=0;entryDx=0;entryDy=0;exitX=0;exitY=0.75;exitDx=0;exitDy=0;" parent="1" source="o1oB3w7YQVJ93uNR2HxH-7" target="o1oB3w7YQVJ93uNR2HxH-58" edge="1">
          <mxGeometry width="50" height="50" relative="1" as="geometry">
            <mxPoint x="407" y="420" as="sourcePoint" />
            <mxPoint x="457" y="370" as="targetPoint" />
          </mxGeometry>
        </mxCell>
        <mxCell id="o1oB3w7YQVJ93uNR2HxH-60" value="" style="endArrow=none;html=1;rounded=0;entryX=0.5;entryY=1;entryDx=0;entryDy=0;exitX=0.5;exitY=0;exitDx=0;exitDy=0;" parent="1" source="o1oB3w7YQVJ93uNR2HxH-2" target="o1oB3w7YQVJ93uNR2HxH-57" edge="1">
          <mxGeometry width="50" height="50" relative="1" as="geometry">
            <mxPoint x="420" y="160" as="sourcePoint" />
            <mxPoint x="390" y="140" as="targetPoint" />
          </mxGeometry>
        </mxCell>
        <mxCell id="o1oB3w7YQVJ93uNR2HxH-61" value="Status rezervacije" style="ellipse;whiteSpace=wrap;html=1;" parent="1" vertex="1">
          <mxGeometry x="475" y="100" width="80" height="40" as="geometry" />
        </mxCell>
        <mxCell id="o1oB3w7YQVJ93uNR2HxH-62" value="Status&lt;br&gt;" style="ellipse;whiteSpace=wrap;html=1;" parent="1" vertex="1">
          <mxGeometry x="687" y="510" width="60" height="20" as="geometry" />
        </mxCell>
        <mxCell id="o1oB3w7YQVJ93uNR2HxH-63" value="" style="endArrow=none;html=1;rounded=0;entryX=0.5;entryY=1;entryDx=0;entryDy=0;exitX=0.5;exitY=0;exitDx=0;exitDy=0;" parent="1" source="o1oB3w7YQVJ93uNR2HxH-62" target="o1oB3w7YQVJ93uNR2HxH-7" edge="1">
          <mxGeometry width="50" height="50" relative="1" as="geometry">
            <mxPoint x="717" y="430" as="sourcePoint" />
            <mxPoint x="714" y="403" as="targetPoint" />
          </mxGeometry>
        </mxCell>
        <mxCell id="o1oB3w7YQVJ93uNR2HxH-64" value="" style="endArrow=none;html=1;rounded=0;exitX=0.5;exitY=0;exitDx=0;exitDy=0;entryX=0.917;entryY=0.997;entryDx=0;entryDy=0;entryPerimeter=0;" parent="1" source="o1oB3w7YQVJ93uNR2HxH-36" target="o1oB3w7YQVJ93uNR2HxH-95" edge="1">
          <mxGeometry width="50" height="50" relative="1" as="geometry">
            <mxPoint x="420" y="125" as="sourcePoint" />
            <mxPoint x="390" y="105" as="targetPoint" />
          </mxGeometry>
        </mxCell>
        <mxCell id="o1oB3w7YQVJ93uNR2HxH-65" value="" style="endArrow=none;html=1;rounded=0;entryX=0;entryY=1;entryDx=0;entryDy=0;exitX=0.833;exitY=0;exitDx=0;exitDy=0;exitPerimeter=0;" parent="1" source="o1oB3w7YQVJ93uNR2HxH-2" target="o1oB3w7YQVJ93uNR2HxH-61" edge="1">
          <mxGeometry width="50" height="50" relative="1" as="geometry">
            <mxPoint x="430" y="170" as="sourcePoint" />
            <mxPoint x="400" y="150" as="targetPoint" />
          </mxGeometry>
        </mxCell>
        <mxCell id="o1oB3w7YQVJ93uNR2HxH-68" value="RezervacijaID" style="ellipse;whiteSpace=wrap;html=1;" parent="1" vertex="1">
          <mxGeometry x="320" y="90" width="85" height="50" as="geometry" />
        </mxCell>
        <mxCell id="o1oB3w7YQVJ93uNR2HxH-69" value="" style="endArrow=none;html=1;rounded=0;exitX=1;exitY=0.5;exitDx=0;exitDy=0;" parent="1" source="o1oB3w7YQVJ93uNR2HxH-68" target="o1oB3w7YQVJ93uNR2HxH-2" edge="1">
          <mxGeometry width="50" height="50" relative="1" as="geometry">
            <mxPoint x="390" y="350" as="sourcePoint" />
            <mxPoint x="440" y="300" as="targetPoint" />
          </mxGeometry>
        </mxCell>
        <mxCell id="o1oB3w7YQVJ93uNR2HxH-70" value="SobaID" style="ellipse;whiteSpace=wrap;html=1;" parent="1" vertex="1">
          <mxGeometry x="50" y="250" width="85" height="50" as="geometry" />
        </mxCell>
        <mxCell id="o1oB3w7YQVJ93uNR2HxH-71" value="" style="endArrow=none;html=1;rounded=0;entryX=0.5;entryY=1;entryDx=0;entryDy=0;exitX=0.5;exitY=0;exitDx=0;exitDy=0;" parent="1" source="o1oB3w7YQVJ93uNR2HxH-70" target="o1oB3w7YQVJ93uNR2HxH-1" edge="1">
          <mxGeometry width="50" height="50" relative="1" as="geometry">
            <mxPoint x="365" y="270" as="sourcePoint" />
            <mxPoint x="420" y="220" as="targetPoint" />
          </mxGeometry>
        </mxCell>
        <mxCell id="o1oB3w7YQVJ93uNR2HxH-73" value="GostID" style="ellipse;whiteSpace=wrap;html=1;" parent="1" vertex="1">
          <mxGeometry x="730" y="230" width="60" height="30" as="geometry" />
        </mxCell>
        <mxCell id="o1oB3w7YQVJ93uNR2HxH-74" value="" style="endArrow=none;html=1;rounded=0;entryX=0.5;entryY=1;entryDx=0;entryDy=0;exitX=0.62;exitY=0.033;exitDx=0;exitDy=0;exitPerimeter=0;" parent="1" source="o1oB3w7YQVJ93uNR2HxH-73" target="o1oB3w7YQVJ93uNR2HxH-3" edge="1">
          <mxGeometry width="50" height="50" relative="1" as="geometry">
            <mxPoint x="730" y="240" as="sourcePoint" />
            <mxPoint x="807" y="135" as="targetPoint" />
          </mxGeometry>
        </mxCell>
        <mxCell id="o1oB3w7YQVJ93uNR2HxH-79" value="" style="endArrow=none;html=1;rounded=0;exitX=0.5;exitY=0;exitDx=0;exitDy=0;" parent="1" source="o1oB3w7YQVJ93uNR2HxH-81" edge="1">
          <mxGeometry width="50" height="50" relative="1" as="geometry">
            <mxPoint x="440" y="280" as="sourcePoint" />
            <mxPoint x="500" y="309" as="targetPoint" />
          </mxGeometry>
        </mxCell>
        <mxCell id="o1oB3w7YQVJ93uNR2HxH-83" value="0, 1" style="edgeLabel;html=1;align=center;verticalAlign=middle;resizable=0;points=[];" parent="o1oB3w7YQVJ93uNR2HxH-79" vertex="1" connectable="0">
          <mxGeometry x="0.46" relative="1" as="geometry">
            <mxPoint x="-44" y="1" as="offset" />
          </mxGeometry>
        </mxCell>
        <mxCell id="o1oB3w7YQVJ93uNR2HxH-80" value="" style="endArrow=none;html=1;rounded=0;exitX=0.5;exitY=0;exitDx=0;exitDy=0;entryX=0.5;entryY=1;entryDx=0;entryDy=0;" parent="1" source="o1oB3w7YQVJ93uNR2HxH-7" target="o1oB3w7YQVJ93uNR2HxH-81" edge="1">
          <mxGeometry width="50" height="50" relative="1" as="geometry">
            <mxPoint x="697" y="400" as="sourcePoint" />
            <mxPoint x="747" y="360" as="targetPoint" />
          </mxGeometry>
        </mxCell>
        <mxCell id="o1oB3w7YQVJ93uNR2HxH-84" value="1, 1" style="edgeLabel;html=1;align=center;verticalAlign=middle;resizable=0;points=[];" parent="o1oB3w7YQVJ93uNR2HxH-80" vertex="1" connectable="0">
          <mxGeometry x="-0.32" relative="1" as="geometry">
            <mxPoint as="offset" />
          </mxGeometry>
        </mxCell>
        <mxCell id="o1oB3w7YQVJ93uNR2HxH-81" value="" style="rhombus;whiteSpace=wrap;html=1;" parent="1" vertex="1">
          <mxGeometry x="721" y="310" width="50" height="30" as="geometry" />
        </mxCell>
        <mxCell id="o1oB3w7YQVJ93uNR2HxH-86" value="" style="endArrow=none;html=1;rounded=0;exitX=1;exitY=0.5;exitDx=0;exitDy=0;entryX=0;entryY=0.5;entryDx=0;entryDy=0;" parent="1" source="o1oB3w7YQVJ93uNR2HxH-1" target="o1oB3w7YQVJ93uNR2HxH-85" edge="1">
          <mxGeometry width="50" height="50" relative="1" as="geometry">
            <mxPoint x="210" y="180" as="sourcePoint" />
            <mxPoint x="310" y="180" as="targetPoint" />
          </mxGeometry>
        </mxCell>
        <mxCell id="o1oB3w7YQVJ93uNR2HxH-87" value="0, M&lt;br&gt;" style="edgeLabel;html=1;align=center;verticalAlign=middle;resizable=0;points=[];" parent="o1oB3w7YQVJ93uNR2HxH-86" vertex="1" connectable="0">
          <mxGeometry x="-0.3067" relative="1" as="geometry">
            <mxPoint x="-4" as="offset" />
          </mxGeometry>
        </mxCell>
        <mxCell id="o1oB3w7YQVJ93uNR2HxH-85" value="" style="rhombus;whiteSpace=wrap;html=1;" parent="1" vertex="1">
          <mxGeometry x="270" y="210" width="50" height="30" as="geometry" />
        </mxCell>
        <mxCell id="o1oB3w7YQVJ93uNR2HxH-89" value="" style="endArrow=none;html=1;rounded=0;entryX=0;entryY=0.5;entryDx=0;entryDy=0;" parent="1" target="o1oB3w7YQVJ93uNR2HxH-88" edge="1">
          <mxGeometry width="50" height="50" relative="1" as="geometry">
            <mxPoint x="560" y="180" as="sourcePoint" />
            <mxPoint x="670" y="180" as="targetPoint" />
          </mxGeometry>
        </mxCell>
        <mxCell id="o1oB3w7YQVJ93uNR2HxH-88" value="" style="rhombus;whiteSpace=wrap;html=1;" parent="1" vertex="1">
          <mxGeometry x="560" y="165" width="50" height="30" as="geometry" />
        </mxCell>
        <mxCell id="o1oB3w7YQVJ93uNR2HxH-94" value="" style="rounded=0;whiteSpace=wrap;html=1;" parent="1" vertex="1">
          <mxGeometry x="380" y="275" width="120" height="60" as="geometry" />
        </mxCell>
        <mxCell id="o1oB3w7YQVJ93uNR2HxH-95" value="" style="rounded=0;whiteSpace=wrap;html=1;" parent="1" vertex="1">
          <mxGeometry x="380" y="275" width="120" height="60" as="geometry" />
        </mxCell>
        <mxCell id="o1oB3w7YQVJ93uNR2HxH-96" value="DETALJI REZERVACIJE" style="rounded=0;whiteSpace=wrap;html=1;" parent="1" vertex="1">
          <mxGeometry x="385" y="280" width="110" height="50" as="geometry" />
        </mxCell>
        <mxCell id="o1oB3w7YQVJ93uNR2HxH-102" value="DetaljiRezervacijeID" style="ellipse;whiteSpace=wrap;html=1;" parent="1" vertex="1">
          <mxGeometry x="240" y="330" width="125" height="30" as="geometry" />
        </mxCell>
        <mxCell id="o1oB3w7YQVJ93uNR2HxH-103" value="" style="endArrow=none;html=1;rounded=0;exitX=0.629;exitY=0.047;exitDx=0;exitDy=0;exitPerimeter=0;entryX=-0.01;entryY=0.65;entryDx=0;entryDy=0;entryPerimeter=0;" parent="1" source="o1oB3w7YQVJ93uNR2HxH-102" target="o1oB3w7YQVJ93uNR2HxH-95" edge="1">
          <mxGeometry width="50" height="50" relative="1" as="geometry">
            <mxPoint x="415" y="125" as="sourcePoint" />
            <mxPoint x="434" y="160" as="targetPoint" />
          </mxGeometry>
        </mxCell>
        <mxCell id="ZbteRYRoFyvjOeRc-PP4-1" value="PromoKodID" style="ellipse;whiteSpace=wrap;html=1;" parent="1" vertex="1">
          <mxGeometry x="570" y="445" width="80" height="35" as="geometry" />
        </mxCell>
        <mxCell id="ZbteRYRoFyvjOeRc-PP4-2" value="" style="endArrow=none;html=1;rounded=0;entryX=0.5;entryY=0;entryDx=0;entryDy=0;exitX=0;exitY=0.25;exitDx=0;exitDy=0;" parent="1" source="o1oB3w7YQVJ93uNR2HxH-7" target="ZbteRYRoFyvjOeRc-PP4-1" edge="1">
          <mxGeometry width="50" height="50" relative="1" as="geometry">
            <mxPoint x="647" y="420" as="sourcePoint" />
            <mxPoint x="417" y="325" as="targetPoint" />
          </mxGeometry>
        </mxCell>
        <mxCell id="Dw5bGJD_wOASGsmzp46i-1" value="SOBA" style="rounded=0;whiteSpace=wrap;html=1;" parent="1" vertex="1">
          <mxGeometry x="90" y="150" width="120" height="60" as="geometry" />
        </mxCell>
        <mxCell id="Dw5bGJD_wOASGsmzp46i-2" style="edgeStyle=orthogonalEdgeStyle;rounded=0;orthogonalLoop=1;jettySize=auto;html=1;exitX=0.5;exitY=1;exitDx=0;exitDy=0;entryX=0.5;entryY=0;entryDx=0;entryDy=0;" parent="1" source="Dw5bGJD_wOASGsmzp46i-4" target="Dw5bGJD_wOASGsmzp46i-60" edge="1">
          <mxGeometry relative="1" as="geometry" />
        </mxCell>
        <mxCell id="Dw5bGJD_wOASGsmzp46i-3" value="1, M" style="edgeLabel;html=1;align=center;verticalAlign=middle;resizable=0;points=[];" parent="Dw5bGJD_wOASGsmzp46i-2" vertex="1" connectable="0">
          <mxGeometry x="-0.708" y="-1" relative="1" as="geometry">
            <mxPoint x="1" y="11" as="offset" />
          </mxGeometry>
        </mxCell>
        <mxCell id="Dw5bGJD_wOASGsmzp46i-4" value="REZERVACIJA" style="rounded=0;whiteSpace=wrap;html=1;" parent="1" vertex="1">
          <mxGeometry x="380" y="150" width="120" height="60" as="geometry" />
        </mxCell>
        <mxCell id="Dw5bGJD_wOASGsmzp46i-5" value="GOST" style="rounded=0;whiteSpace=wrap;html=1;" parent="1" vertex="1">
          <mxGeometry x="670" y="150" width="120" height="60" as="geometry" />
        </mxCell>
        <mxCell id="Dw5bGJD_wOASGsmzp46i-6" value="PROMO KOD" style="rounded=0;whiteSpace=wrap;html=1;" parent="1" vertex="1">
          <mxGeometry x="687" y="420" width="120" height="60" as="geometry" />
        </mxCell>
        <mxCell id="Dw5bGJD_wOASGsmzp46i-7" value="Naziv&lt;br&gt;" style="ellipse;whiteSpace=wrap;html=1;" parent="1" vertex="1">
          <mxGeometry x="30" y="100" width="60" height="30" as="geometry" />
        </mxCell>
        <mxCell id="Dw5bGJD_wOASGsmzp46i-8" value="Kapacitet" style="ellipse;whiteSpace=wrap;html=1;" parent="1" vertex="1">
          <mxGeometry x="100" y="80" width="70" height="40" as="geometry" />
        </mxCell>
        <mxCell id="Dw5bGJD_wOASGsmzp46i-9" value="Opis" style="ellipse;whiteSpace=wrap;html=1;" parent="1" vertex="1">
          <mxGeometry x="10" y="150" width="60" height="30" as="geometry" />
        </mxCell>
        <mxCell id="Dw5bGJD_wOASGsmzp46i-10" value="Cena po noci" style="ellipse;whiteSpace=wrap;html=1;" parent="1" vertex="1">
          <mxGeometry x="5" y="200" width="70" height="40" as="geometry" />
        </mxCell>
        <mxCell id="Dw5bGJD_wOASGsmzp46i-11" value="" style="endArrow=none;html=1;rounded=0;entryX=1;entryY=1;entryDx=0;entryDy=0;exitX=0.75;exitY=0;exitDx=0;exitDy=0;" parent="1" source="Dw5bGJD_wOASGsmzp46i-1" target="Dw5bGJD_wOASGsmzp46i-8" edge="1">
          <mxGeometry width="50" height="50" relative="1" as="geometry">
            <mxPoint x="190" y="160" as="sourcePoint" />
            <mxPoint x="240" y="110" as="targetPoint" />
          </mxGeometry>
        </mxCell>
        <mxCell id="Dw5bGJD_wOASGsmzp46i-12" value="" style="endArrow=none;html=1;rounded=0;entryX=1;entryY=1;entryDx=0;entryDy=0;" parent="1" target="Dw5bGJD_wOASGsmzp46i-7" edge="1">
          <mxGeometry width="50" height="50" relative="1" as="geometry">
            <mxPoint x="150" y="150" as="sourcePoint" />
            <mxPoint x="170" y="124" as="targetPoint" />
          </mxGeometry>
        </mxCell>
        <mxCell id="Dw5bGJD_wOASGsmzp46i-13" value="" style="endArrow=none;html=1;rounded=0;entryX=1;entryY=0.5;entryDx=0;entryDy=0;exitX=0;exitY=0.25;exitDx=0;exitDy=0;" parent="1" source="Dw5bGJD_wOASGsmzp46i-1" target="Dw5bGJD_wOASGsmzp46i-9" edge="1">
          <mxGeometry width="50" height="50" relative="1" as="geometry">
            <mxPoint x="200" y="170" as="sourcePoint" />
            <mxPoint x="180" y="134" as="targetPoint" />
          </mxGeometry>
        </mxCell>
        <mxCell id="Dw5bGJD_wOASGsmzp46i-14" value="" style="endArrow=none;html=1;rounded=0;entryX=1;entryY=0.5;entryDx=0;entryDy=0;" parent="1" target="Dw5bGJD_wOASGsmzp46i-10" edge="1">
          <mxGeometry width="50" height="50" relative="1" as="geometry">
            <mxPoint x="120" y="210" as="sourcePoint" />
            <mxPoint x="80" y="210" as="targetPoint" />
          </mxGeometry>
        </mxCell>
        <mxCell id="Dw5bGJD_wOASGsmzp46i-15" value="Datum od" style="ellipse;whiteSpace=wrap;html=1;" parent="1" vertex="1">
          <mxGeometry x="340" y="365" width="60" height="30" as="geometry" />
        </mxCell>
        <mxCell id="Dw5bGJD_wOASGsmzp46i-16" value="Datum do&lt;br&gt;" style="ellipse;whiteSpace=wrap;html=1;" parent="1" vertex="1">
          <mxGeometry x="414" y="370" width="60" height="30" as="geometry" />
        </mxCell>
        <mxCell id="Dw5bGJD_wOASGsmzp46i-17" value="" style="endArrow=none;html=1;rounded=0;entryX=0.707;entryY=0.133;entryDx=0;entryDy=0;exitX=0.25;exitY=1;exitDx=0;exitDy=0;entryPerimeter=0;" parent="1" source="Dw5bGJD_wOASGsmzp46i-61" target="Dw5bGJD_wOASGsmzp46i-15" edge="1">
          <mxGeometry width="50" height="50" relative="1" as="geometry">
            <mxPoint x="255" y="125" as="sourcePoint" />
            <mxPoint x="235" y="89" as="targetPoint" />
          </mxGeometry>
        </mxCell>
        <mxCell id="Dw5bGJD_wOASGsmzp46i-18" value="" style="endArrow=none;html=1;rounded=0;exitX=0.563;exitY=1.023;exitDx=0;exitDy=0;exitPerimeter=0;" parent="1" source="Dw5bGJD_wOASGsmzp46i-60" target="Dw5bGJD_wOASGsmzp46i-16" edge="1">
          <mxGeometry width="50" height="50" relative="1" as="geometry">
            <mxPoint x="265" y="135" as="sourcePoint" />
            <mxPoint x="245" y="99" as="targetPoint" />
          </mxGeometry>
        </mxCell>
        <mxCell id="Dw5bGJD_wOASGsmzp46i-19" value="Email&lt;br&gt;" style="ellipse;whiteSpace=wrap;html=1;" parent="1" vertex="1">
          <mxGeometry x="640" y="95" width="60" height="30" as="geometry" />
        </mxCell>
        <mxCell id="Dw5bGJD_wOASGsmzp46i-20" value="Prezime" style="ellipse;whiteSpace=wrap;html=1;" parent="1" vertex="1">
          <mxGeometry x="761" y="95" width="60" height="30" as="geometry" />
        </mxCell>
        <mxCell id="Dw5bGJD_wOASGsmzp46i-21" value="Ime&lt;br&gt;" style="ellipse;whiteSpace=wrap;html=1;" parent="1" vertex="1">
          <mxGeometry x="700" y="80" width="60" height="30" as="geometry" />
        </mxCell>
        <mxCell id="Dw5bGJD_wOASGsmzp46i-22" value="Popust %" style="ellipse;whiteSpace=wrap;html=1;" parent="1" vertex="1">
          <mxGeometry x="760" y="505" width="60" height="30" as="geometry" />
        </mxCell>
        <mxCell id="Dw5bGJD_wOASGsmzp46i-23" value="" style="endArrow=none;html=1;rounded=0;exitX=0.75;exitY=1;exitDx=0;exitDy=0;" parent="1" source="Dw5bGJD_wOASGsmzp46i-6" target="Dw5bGJD_wOASGsmzp46i-22" edge="1">
          <mxGeometry width="50" height="50" relative="1" as="geometry">
            <mxPoint x="252" y="110" as="sourcePoint" />
            <mxPoint x="232" y="74" as="targetPoint" />
          </mxGeometry>
        </mxCell>
        <mxCell id="Dw5bGJD_wOASGsmzp46i-24" value="" style="endArrow=none;html=1;rounded=0;entryX=0.5;entryY=1;entryDx=0;entryDy=0;" parent="1" source="Dw5bGJD_wOASGsmzp46i-5" target="Dw5bGJD_wOASGsmzp46i-19" edge="1">
          <mxGeometry width="50" height="50" relative="1" as="geometry">
            <mxPoint x="493" y="170" as="sourcePoint" />
            <mxPoint x="521" y="139" as="targetPoint" />
          </mxGeometry>
        </mxCell>
        <mxCell id="Dw5bGJD_wOASGsmzp46i-25" value="" style="endArrow=none;html=1;rounded=0;entryX=0.5;entryY=1;entryDx=0;entryDy=0;fontStyle=1" parent="1" source="Dw5bGJD_wOASGsmzp46i-5" target="Dw5bGJD_wOASGsmzp46i-21" edge="1">
          <mxGeometry width="50" height="50" relative="1" as="geometry">
            <mxPoint x="503" y="180" as="sourcePoint" />
            <mxPoint x="531" y="149" as="targetPoint" />
          </mxGeometry>
        </mxCell>
        <mxCell id="Dw5bGJD_wOASGsmzp46i-26" value="" style="endArrow=none;html=1;rounded=0;entryX=0.5;entryY=1;entryDx=0;entryDy=0;exitX=0.893;exitY=0.013;exitDx=0;exitDy=0;exitPerimeter=0;" parent="1" source="Dw5bGJD_wOASGsmzp46i-5" target="Dw5bGJD_wOASGsmzp46i-20" edge="1">
          <mxGeometry width="50" height="50" relative="1" as="geometry">
            <mxPoint x="433" y="180" as="sourcePoint" />
            <mxPoint x="461" y="149" as="targetPoint" />
          </mxGeometry>
        </mxCell>
        <mxCell id="Dw5bGJD_wOASGsmzp46i-27" value="Cena rezervacije" style="ellipse;whiteSpace=wrap;html=1;" parent="1" vertex="1">
          <mxGeometry x="485" y="350" width="85" height="40" as="geometry" />
        </mxCell>
        <mxCell id="Dw5bGJD_wOASGsmzp46i-28" value="" style="endArrow=none;html=1;rounded=0;entryX=0.111;entryY=-0.088;entryDx=0;entryDy=0;exitX=1;exitY=0.5;exitDx=0;exitDy=0;entryPerimeter=0;" parent="1" source="Dw5bGJD_wOASGsmzp46i-56" target="Dw5bGJD_wOASGsmzp46i-61" edge="1">
          <mxGeometry width="50" height="50" relative="1" as="geometry">
            <mxPoint x="310" y="180" as="sourcePoint" />
            <mxPoint x="280" y="190" as="targetPoint" />
          </mxGeometry>
        </mxCell>
        <mxCell id="Dw5bGJD_wOASGsmzp46i-29" value="1, 1" style="edgeLabel;html=1;align=center;verticalAlign=middle;resizable=0;points=[];" parent="Dw5bGJD_wOASGsmzp46i-28" vertex="1" connectable="0">
          <mxGeometry x="0.5371" y="-2" relative="1" as="geometry">
            <mxPoint x="-3" y="-2" as="offset" />
          </mxGeometry>
        </mxCell>
        <mxCell id="Dw5bGJD_wOASGsmzp46i-30" value="" style="endArrow=none;html=1;rounded=0;entryX=0;entryY=0.5;entryDx=0;entryDy=0;" parent="1" edge="1">
          <mxGeometry width="50" height="50" relative="1" as="geometry">
            <mxPoint x="500" y="180" as="sourcePoint" />
            <mxPoint x="560" y="180" as="targetPoint" />
          </mxGeometry>
        </mxCell>
        <mxCell id="Dw5bGJD_wOASGsmzp46i-31" value="1, 1" style="edgeLabel;html=1;align=center;verticalAlign=middle;resizable=0;points=[];" parent="Dw5bGJD_wOASGsmzp46i-30" vertex="1" connectable="0">
          <mxGeometry x="-0.3067" y="-4" relative="1" as="geometry">
            <mxPoint y="-4" as="offset" />
          </mxGeometry>
        </mxCell>
        <mxCell id="Dw5bGJD_wOASGsmzp46i-32" value="" style="endArrow=none;html=1;rounded=0;entryX=0;entryY=0.5;entryDx=0;entryDy=0;" parent="1" source="Dw5bGJD_wOASGsmzp46i-58" target="Dw5bGJD_wOASGsmzp46i-5" edge="1">
          <mxGeometry width="50" height="50" relative="1" as="geometry">
            <mxPoint x="560" y="180" as="sourcePoint" />
            <mxPoint x="300" y="210" as="targetPoint" />
          </mxGeometry>
        </mxCell>
        <mxCell id="Dw5bGJD_wOASGsmzp46i-33" value="0, M&lt;br&gt;" style="edgeLabel;html=1;align=center;verticalAlign=middle;resizable=0;points=[];" parent="Dw5bGJD_wOASGsmzp46i-32" vertex="1" connectable="0">
          <mxGeometry x="0.1086" y="1" relative="1" as="geometry">
            <mxPoint x="7" y="1" as="offset" />
          </mxGeometry>
        </mxCell>
        <mxCell id="Dw5bGJD_wOASGsmzp46i-34" value="Token" style="ellipse;whiteSpace=wrap;html=1;" parent="1" vertex="1">
          <mxGeometry x="410" y="80" width="60" height="30" as="geometry" />
        </mxCell>
        <mxCell id="Dw5bGJD_wOASGsmzp46i-35" value="Promo kod" style="ellipse;whiteSpace=wrap;html=1;" parent="1" vertex="1">
          <mxGeometry x="610" y="490" width="70" height="35" as="geometry" />
        </mxCell>
        <mxCell id="Dw5bGJD_wOASGsmzp46i-36" value="" style="endArrow=none;html=1;rounded=0;entryX=0.5;entryY=0;entryDx=0;entryDy=0;exitX=0;exitY=0.75;exitDx=0;exitDy=0;" parent="1" source="Dw5bGJD_wOASGsmzp46i-6" target="Dw5bGJD_wOASGsmzp46i-35" edge="1">
          <mxGeometry width="50" height="50" relative="1" as="geometry">
            <mxPoint x="407" y="420" as="sourcePoint" />
            <mxPoint x="457" y="370" as="targetPoint" />
          </mxGeometry>
        </mxCell>
        <mxCell id="Dw5bGJD_wOASGsmzp46i-37" value="" style="endArrow=none;html=1;rounded=0;entryX=0.5;entryY=1;entryDx=0;entryDy=0;exitX=0.5;exitY=0;exitDx=0;exitDy=0;" parent="1" source="Dw5bGJD_wOASGsmzp46i-4" target="Dw5bGJD_wOASGsmzp46i-34" edge="1">
          <mxGeometry width="50" height="50" relative="1" as="geometry">
            <mxPoint x="420" y="160" as="sourcePoint" />
            <mxPoint x="390" y="140" as="targetPoint" />
          </mxGeometry>
        </mxCell>
        <mxCell id="Dw5bGJD_wOASGsmzp46i-38" value="Status rezervacije" style="ellipse;whiteSpace=wrap;html=1;" parent="1" vertex="1">
          <mxGeometry x="475" y="100" width="80" height="40" as="geometry" />
        </mxCell>
        <mxCell id="Dw5bGJD_wOASGsmzp46i-39" value="Status&lt;br&gt;" style="ellipse;whiteSpace=wrap;html=1;" parent="1" vertex="1">
          <mxGeometry x="687" y="510" width="60" height="20" as="geometry" />
        </mxCell>
        <mxCell id="Dw5bGJD_wOASGsmzp46i-40" value="" style="endArrow=none;html=1;rounded=0;entryX=0.5;entryY=1;entryDx=0;entryDy=0;exitX=0.5;exitY=0;exitDx=0;exitDy=0;" parent="1" source="Dw5bGJD_wOASGsmzp46i-39" target="Dw5bGJD_wOASGsmzp46i-6" edge="1">
          <mxGeometry width="50" height="50" relative="1" as="geometry">
            <mxPoint x="717" y="430" as="sourcePoint" />
            <mxPoint x="714" y="403" as="targetPoint" />
          </mxGeometry>
        </mxCell>
        <mxCell id="Dw5bGJD_wOASGsmzp46i-41" value="" style="endArrow=none;html=1;rounded=0;exitX=0.5;exitY=0;exitDx=0;exitDy=0;entryX=0.917;entryY=0.997;entryDx=0;entryDy=0;entryPerimeter=0;" parent="1" source="Dw5bGJD_wOASGsmzp46i-27" target="Dw5bGJD_wOASGsmzp46i-60" edge="1">
          <mxGeometry width="50" height="50" relative="1" as="geometry">
            <mxPoint x="420" y="125" as="sourcePoint" />
            <mxPoint x="390" y="105" as="targetPoint" />
          </mxGeometry>
        </mxCell>
        <mxCell id="Dw5bGJD_wOASGsmzp46i-42" value="" style="endArrow=none;html=1;rounded=0;entryX=0;entryY=1;entryDx=0;entryDy=0;exitX=0.833;exitY=0;exitDx=0;exitDy=0;exitPerimeter=0;" parent="1" source="Dw5bGJD_wOASGsmzp46i-4" target="Dw5bGJD_wOASGsmzp46i-38" edge="1">
          <mxGeometry width="50" height="50" relative="1" as="geometry">
            <mxPoint x="430" y="170" as="sourcePoint" />
            <mxPoint x="400" y="150" as="targetPoint" />
          </mxGeometry>
        </mxCell>
        <mxCell id="Dw5bGJD_wOASGsmzp46i-43" value="RezervacijaID" style="ellipse;whiteSpace=wrap;html=1;" parent="1" vertex="1">
          <mxGeometry x="320" y="90" width="85" height="50" as="geometry" />
        </mxCell>
        <mxCell id="Dw5bGJD_wOASGsmzp46i-44" value="" style="endArrow=none;html=1;rounded=0;exitX=1;exitY=0.5;exitDx=0;exitDy=0;" parent="1" source="Dw5bGJD_wOASGsmzp46i-43" target="Dw5bGJD_wOASGsmzp46i-4" edge="1">
          <mxGeometry width="50" height="50" relative="1" as="geometry">
            <mxPoint x="390" y="350" as="sourcePoint" />
            <mxPoint x="440" y="300" as="targetPoint" />
          </mxGeometry>
        </mxCell>
        <mxCell id="Dw5bGJD_wOASGsmzp46i-45" value="SobaID" style="ellipse;whiteSpace=wrap;html=1;" parent="1" vertex="1">
          <mxGeometry x="50" y="250" width="85" height="50" as="geometry" />
        </mxCell>
        <mxCell id="Dw5bGJD_wOASGsmzp46i-46" value="" style="endArrow=none;html=1;rounded=0;entryX=0.5;entryY=1;entryDx=0;entryDy=0;exitX=0.5;exitY=0;exitDx=0;exitDy=0;" parent="1" source="Dw5bGJD_wOASGsmzp46i-45" target="Dw5bGJD_wOASGsmzp46i-1" edge="1">
          <mxGeometry width="50" height="50" relative="1" as="geometry">
            <mxPoint x="365" y="270" as="sourcePoint" />
            <mxPoint x="420" y="220" as="targetPoint" />
          </mxGeometry>
        </mxCell>
        <mxCell id="Dw5bGJD_wOASGsmzp46i-47" value="GostID" style="ellipse;whiteSpace=wrap;html=1;" parent="1" vertex="1">
          <mxGeometry x="730" y="230" width="60" height="30" as="geometry" />
        </mxCell>
        <mxCell id="Dw5bGJD_wOASGsmzp46i-48" value="" style="endArrow=none;html=1;rounded=0;entryX=0.5;entryY=1;entryDx=0;entryDy=0;exitX=0.62;exitY=0.033;exitDx=0;exitDy=0;exitPerimeter=0;" parent="1" source="Dw5bGJD_wOASGsmzp46i-47" target="Dw5bGJD_wOASGsmzp46i-5" edge="1">
          <mxGeometry width="50" height="50" relative="1" as="geometry">
            <mxPoint x="730" y="240" as="sourcePoint" />
            <mxPoint x="807" y="135" as="targetPoint" />
          </mxGeometry>
        </mxCell>
        <mxCell id="Dw5bGJD_wOASGsmzp46i-49" value="" style="endArrow=none;html=1;rounded=0;exitX=0.5;exitY=0;exitDx=0;exitDy=0;" parent="1" source="Dw5bGJD_wOASGsmzp46i-53" edge="1">
          <mxGeometry width="50" height="50" relative="1" as="geometry">
            <mxPoint x="440" y="280" as="sourcePoint" />
            <mxPoint x="500" y="309" as="targetPoint" />
          </mxGeometry>
        </mxCell>
        <mxCell id="Dw5bGJD_wOASGsmzp46i-50" value="0, 1" style="edgeLabel;html=1;align=center;verticalAlign=middle;resizable=0;points=[];" parent="Dw5bGJD_wOASGsmzp46i-49" vertex="1" connectable="0">
          <mxGeometry x="0.46" relative="1" as="geometry">
            <mxPoint x="-44" y="1" as="offset" />
          </mxGeometry>
        </mxCell>
        <mxCell id="Dw5bGJD_wOASGsmzp46i-51" value="" style="endArrow=none;html=1;rounded=0;exitX=0.5;exitY=0;exitDx=0;exitDy=0;entryX=0.5;entryY=1;entryDx=0;entryDy=0;" parent="1" source="Dw5bGJD_wOASGsmzp46i-6" target="Dw5bGJD_wOASGsmzp46i-53" edge="1">
          <mxGeometry width="50" height="50" relative="1" as="geometry">
            <mxPoint x="697" y="400" as="sourcePoint" />
            <mxPoint x="747" y="360" as="targetPoint" />
          </mxGeometry>
        </mxCell>
        <mxCell id="Dw5bGJD_wOASGsmzp46i-52" value="1, 1" style="edgeLabel;html=1;align=center;verticalAlign=middle;resizable=0;points=[];" parent="Dw5bGJD_wOASGsmzp46i-51" vertex="1" connectable="0">
          <mxGeometry x="-0.32" relative="1" as="geometry">
            <mxPoint as="offset" />
          </mxGeometry>
        </mxCell>
        <mxCell id="Dw5bGJD_wOASGsmzp46i-53" value="" style="rhombus;whiteSpace=wrap;html=1;" parent="1" vertex="1">
          <mxGeometry x="721" y="310" width="50" height="30" as="geometry" />
        </mxCell>
        <mxCell id="Dw5bGJD_wOASGsmzp46i-54" value="" style="endArrow=none;html=1;rounded=0;exitX=1;exitY=0.5;exitDx=0;exitDy=0;entryX=0;entryY=0.5;entryDx=0;entryDy=0;" parent="1" source="Dw5bGJD_wOASGsmzp46i-1" target="Dw5bGJD_wOASGsmzp46i-56" edge="1">
          <mxGeometry width="50" height="50" relative="1" as="geometry">
            <mxPoint x="210" y="180" as="sourcePoint" />
            <mxPoint x="310" y="180" as="targetPoint" />
          </mxGeometry>
        </mxCell>
        <mxCell id="Dw5bGJD_wOASGsmzp46i-55" value="0, M&lt;br&gt;" style="edgeLabel;html=1;align=center;verticalAlign=middle;resizable=0;points=[];" parent="Dw5bGJD_wOASGsmzp46i-54" vertex="1" connectable="0">
          <mxGeometry x="-0.3067" relative="1" as="geometry">
            <mxPoint x="-4" as="offset" />
          </mxGeometry>
        </mxCell>
        <mxCell id="Dw5bGJD_wOASGsmzp46i-56" value="" style="rhombus;whiteSpace=wrap;html=1;" parent="1" vertex="1">
          <mxGeometry x="270" y="210" width="50" height="30" as="geometry" />
        </mxCell>
        <mxCell id="Dw5bGJD_wOASGsmzp46i-57" value="" style="endArrow=none;html=1;rounded=0;entryX=0;entryY=0.5;entryDx=0;entryDy=0;" parent="1" target="Dw5bGJD_wOASGsmzp46i-58" edge="1">
          <mxGeometry width="50" height="50" relative="1" as="geometry">
            <mxPoint x="560" y="180" as="sourcePoint" />
            <mxPoint x="670" y="180" as="targetPoint" />
          </mxGeometry>
        </mxCell>
        <mxCell id="Dw5bGJD_wOASGsmzp46i-58" value="" style="rhombus;whiteSpace=wrap;html=1;" parent="1" vertex="1">
          <mxGeometry x="560" y="165" width="50" height="30" as="geometry" />
        </mxCell>
        <mxCell id="Dw5bGJD_wOASGsmzp46i-59" value="" style="rounded=0;whiteSpace=wrap;html=1;" parent="1" vertex="1">
          <mxGeometry x="380" y="275" width="120" height="60" as="geometry" />
        </mxCell>
        <mxCell id="Dw5bGJD_wOASGsmzp46i-60" value="" style="rounded=0;whiteSpace=wrap;html=1;" parent="1" vertex="1">
          <mxGeometry x="380" y="275" width="120" height="60" as="geometry" />
        </mxCell>
        <mxCell id="Dw5bGJD_wOASGsmzp46i-61" value="DETALJI REZERVACIJE" style="rounded=0;whiteSpace=wrap;html=1;" parent="1" vertex="1">
          <mxGeometry x="385" y="280" width="110" height="50" as="geometry" />
        </mxCell>
        <mxCell id="Dw5bGJD_wOASGsmzp46i-62" value="DetaljiRezervacijeID" style="ellipse;whiteSpace=wrap;html=1;" parent="1" vertex="1">
          <mxGeometry x="240" y="330" width="125" height="30" as="geometry" />
        </mxCell>
        <mxCell id="Dw5bGJD_wOASGsmzp46i-63" value="" style="endArrow=none;html=1;rounded=0;exitX=0.629;exitY=0.047;exitDx=0;exitDy=0;exitPerimeter=0;entryX=-0.01;entryY=0.65;entryDx=0;entryDy=0;entryPerimeter=0;" parent="1" source="Dw5bGJD_wOASGsmzp46i-62" target="Dw5bGJD_wOASGsmzp46i-60" edge="1">
          <mxGeometry width="50" height="50" relative="1" as="geometry">
            <mxPoint x="415" y="125" as="sourcePoint" />
            <mxPoint x="434" y="160" as="targetPoint" />
          </mxGeometry>
        </mxCell>
        <mxCell id="Dw5bGJD_wOASGsmzp46i-64" value="PromoKodID" style="ellipse;whiteSpace=wrap;html=1;" parent="1" vertex="1">
          <mxGeometry x="570" y="445" width="80" height="35" as="geometry" />
        </mxCell>
        <mxCell id="Dw5bGJD_wOASGsmzp46i-65" value="" style="endArrow=none;html=1;rounded=0;entryX=0.5;entryY=0;entryDx=0;entryDy=0;exitX=0;exitY=0.25;exitDx=0;exitDy=0;" parent="1" source="Dw5bGJD_wOASGsmzp46i-6" target="Dw5bGJD_wOASGsmzp46i-64" edge="1">
          <mxGeometry width="50" height="50" relative="1" as="geometry">
            <mxPoint x="647" y="420" as="sourcePoint" />
            <mxPoint x="417" y="325" as="targetPoint" />
          </mxGeometry>
        </mxCell>
      </root>
    </mxGraphModel>
  </diagram>
</mxfile>
